<?xml version="1.0" standalone="no"?>
<!DOCTYPE svg PUBLIC "-//W3C//DTD SVG 20010904//EN"
 "http://www.w3.org/TR/2001/REC-SVG-20010904/DTD/svg10.dtd">
<svg version="1.0" xmlns="http://www.w3.org/2000/svg"
 width="512.000000pt" height="512.000000pt" viewBox="0 0 512.000000 512.000000"
 preserveAspectRatio="xMidYMid meet">

<g transform="translate(0.000000,512.000000) scale(0.100000,-0.100000)"
fill="#000000" stroke="none">
<path d="M2368 4599 c-123 -29 -266 -149 -347 -292 -52 -92 -106 -242 -123
-343 l-12 -72 -101 -4 c-90 -3 -106 -6 -142 -30 -63 -41 -73 -74 -73 -233 0
-150 7 -173 60 -219 17 -14 49 -30 71 -36 30 -8 39 -15 35 -26 -3 -9 -6 -18
-6 -20 0 -2 -182 -4 -404 -4 -375 0 -409 -1 -468 -20 -235 -72 -434 -357 -492
-702 l-12 -73 -115 -5 c-147 -6 -188 -27 -224 -113 -21 -52 -21 -283 1 -335
28 -68 66 -96 155 -116 l27 -6 -21 -62 c-18 -56 -21 -94 -25 -353 l-4 -289
-27 -35 c-25 -33 -26 -40 -26 -151 0 -112 1 -118 28 -153 15 -19 42 -41 61
-48 l33 -12 6 -103 c5 -117 18 -148 80 -198 l39 -31 305 -3 c292 -3 307 -2
348 18 25 12 55 38 71 62 26 37 29 50 32 144 l4 104 184 0 c159 0 188 -2 211
-17 25 -16 63 -18 433 -18 367 0 408 2 437 18 27 14 60 17 218 17 l185 0 0
-95 c0 -128 24 -177 107 -219 27 -14 75 -16 328 -16 271 0 299 2 333 19 77 39
102 93 102 221 l0 90 33 14 c39 16 82 61 96 99 16 40 14 181 -3 220 -7 18 -23
41 -35 51 -20 19 -21 26 -21 300 0 271 -3 307 -34 402 -6 19 -2 22 55 28 82 8
137 40 169 96 23 41 25 58 28 178 l4 132 63 0 63 0 4 -95 c4 -87 6 -97 34
-132 57 -71 66 -73 363 -73 248 0 267 1 308 21 68 33 93 85 93 193 0 85 0 87
27 97 68 25 102 91 103 192 0 67 -17 125 -44 157 -11 12 -15 74 -18 280 -4
204 -8 276 -20 313 l-16 47 31 0 c87 0 155 43 182 114 13 34 16 70 13 173 -3
124 -4 131 -31 167 -49 64 -67 70 -210 76 l-130 5 -18 87 c-32 161 -43 178
-113 178 -25 0 -39 -6 -50 -22 -21 -29 -20 -50 4 -144 18 -71 40 -314 28 -314
-2 0 -25 7 -50 16 l-45 15 -8 112 c-4 61 -15 144 -25 183 -38 146 -132 288
-225 337 l-40 22 -890 0 -890 0 -40 -21 c-70 -38 -123 -98 -171 -193 -50 -100
-65 -167 -71 -307 l-5 -131 -42 -12 c-22 -6 -47 -15 -55 -18 -12 -5 -13 11 -8
98 18 308 145 563 323 647 l59 27 905 0 c899 0 905 0 951 -21 25 -12 69 -42
97 -68 41 -35 60 -46 87 -46 39 0 75 37 75 78 0 33 -85 116 -159 156 -107 57
-78 56 -1061 55 -498 -1 -922 -5 -942 -10z m1835 -419 c38 -33 90 -124 113
-197 8 -26 17 -94 21 -150 l6 -103 -1028 0 -1028 0 6 90 c4 50 12 112 18 138
18 76 76 187 114 221 l36 31 854 0 854 0 34 -30z m-2333 -532 c0 -80 -3 -95
-22 -115 -15 -16 -33 -23 -59 -23 -68 0 -69 1 -69 114 0 57 3 106 7 109 3 4
37 7 75 7 l68 0 0 -92z m3098 -17 c2 -77 -1 -107 -10 -113 -7 -4 -45 -8 -85
-8 -68 0 -73 2 -92 29 -17 24 -21 44 -21 115 l0 87 103 -3 102 -3 3 -104z
m-2421 -178 l72 -118 -356 -3 c-196 -1 -358 0 -361 3 -8 7 41 76 84 118 91 89
172 115 359 116 l131 1 71 -117z m1420 110 c-40 -74 -138 -226 -161 -252 -55
-59 -66 -61 -385 -61 l-289 0 -63 30 c-70 32 -145 50 -218 50 l-46 1 -72 119
-72 120 655 0 c360 0 653 -3 651 -7z m566 -30 c84 -40 164 -118 200 -195 36
-75 46 -163 47 -385 l0 -183 -519 0 c-441 0 -523 2 -547 15 -21 11 -62 15
-145 15 l-116 0 -16 40 -15 40 164 0 c162 0 165 0 189 25 30 30 32 64 4 99
l-20 26 -209 0 -209 0 -21 30 -21 30 198 0 c219 0 288 11 357 57 62 40 90 77
199 256 l102 168 155 -3 c150 -3 157 -4 223 -35z m-2495 -561 c7 -16 24 -34
38 -40 17 -9 142 -12 415 -12 431 0 419 2 478 -65 76 -87 129 -241 138 -407
l6 -108 -1177 0 -1176 0 0 80 c0 200 81 405 189 477 34 23 35 23 430 23 431 0
430 0 451 56 9 23 14 24 102 24 93 0 93 0 106 -28z m1610 -384 l-3 -63 -64 0
-65 0 -11 63 -12 62 79 0 79 0 -3 -62z m1190 -25 l3 -53 -520 0 -521 0 0 55 0
55 518 -2 517 -3 3 -52z m-4498 -293 c0 -88 -3 -105 -22 -130 -20 -28 -26 -30
-89 -30 -52 0 -68 4 -73 16 -11 30 -7 219 6 232 7 7 44 12 95 12 l83 0 0 -100z
m3430 81 c14 -28 13 -214 -2 -229 -8 -8 -45 -12 -102 -12 -84 0 -92 2 -118 27
-27 26 -28 30 -28 130 l0 103 120 0 c108 0 120 -2 130 -19z m-2650 -358 c63
-104 130 -205 149 -226 18 -20 67 -54 109 -75 l76 -37 448 -3 c489 -3 523 0
617 55 69 40 105 85 226 283 l113 185 152 3 c167 3 223 -7 312 -55 105 -57
204 -197 228 -322 5 -30 10 -159 10 -287 l0 -234 -574 0 c-550 0 -576 1 -617
20 -41 18 -67 20 -439 20 -376 0 -398 -1 -435 -20 -37 -19 -59 -20 -477 -20
l-438 0 0 84 0 84 38 -14 c51 -18 149 -17 205 2 60 20 131 84 165 148 36 68
38 186 5 257 -48 106 -150 172 -265 173 -38 1 -68 4 -68 8 0 4 33 41 73 83
l72 75 100 0 101 0 114 -187z m-335 -147 c53 -22 77 -69 72 -139 -3 -46 -9
-63 -32 -87 -61 -64 -155 -62 -213 4 -41 47 -48 94 -23 151 34 76 114 105 196
71z m1509 -682 c24 -9 24 -199 0 -208 -21 -8 -258 -8 -522 1 l-212 6 0 98 0
98 143 4 c304 6 576 7 591 1z m-889 -104 l0 -65 -580 0 -580 0 -3 54 c-2 29
-1 60 2 67 5 12 100 14 583 12 l578 -3 0 -65z m2220 0 l0 -65 -582 -3 -583 -2
0 70 0 70 583 -2 582 -3 0 -65z"/>
<path d="M4295 3406 c-56 -26 -116 -87 -141 -143 -10 -23 -17 -66 -18 -108 0
-59 4 -78 29 -124 53 -96 142 -151 245 -151 181 0 317 179 266 352 -46 159
-232 244 -381 174z m170 -140 c66 -28 87 -128 40 -185 -53 -62 -137 -62 -190
0 -47 56 -26 151 39 183 39 19 68 20 111 2z"/>
<path d="M3053 2002 c-131 -47 -203 -150 -203 -291 0 -116 58 -208 162 -260
109 -55 242 -39 332 40 25 22 57 65 73 97 23 48 28 69 27 132 -1 89 -25 149
-86 209 -80 80 -202 110 -305 73z m166 -160 c90 -48 94 -190 8 -247 -72 -46
-169 -18 -208 61 -62 128 74 254 200 186z"/>
<path d="M1438 1560 c-14 -11 -29 -31 -32 -45 -7 -29 15 -79 39 -89 9 -3 229
-6 489 -6 464 0 474 0 500 21 32 25 35 75 7 110 l-19 24 -479 3 c-468 2 -480
2 -505 -18z"/>
</g>
</svg>
